<?xml version="1.0" encoding="iso-8859-1"?>
<!-- Generator: Adobe Illustrator 19.0.0, SVG Export Plug-In . SVG Version: 6.00 Build 0)  -->
<svg version="1.1" id="Layer_1" xmlns="http://www.w3.org/2000/svg" xmlns:xlink="http://www.w3.org/1999/xlink" x="0px" y="0px"
	 viewBox="0 0 512 512" style="enable-background:new 0 0 512 512;" xml:space="preserve">
<circle style="fill:#FFF5B1;" cx="256" cy="256" r="153.921"/>
<circle style="fill:#FFEB64;" cx="256" cy="256" r="102.614"/>
<path d="M256,145.37c-61.002,0-110.63,49.629-110.63,110.63S194.998,366.63,256,366.63S366.63,317.002,366.63,256
	S317.002,145.37,256,145.37z M256,350.597c-52.161,0-94.597-42.436-94.597-94.597s42.436-94.597,94.597-94.597
	s94.597,42.436,94.597,94.597S308.161,350.597,256,350.597z"/>
<path d="M67.34,256c0-4.427-3.589-8.017-8.017-8.017H8.017C3.589,247.983,0,251.573,0,256c0,4.427,3.589,8.017,8.017,8.017h51.307
	C63.751,264.017,67.34,260.427,67.34,256z"/>
<path d="M147.539,353.123l-60.465,60.465c-3.131,3.131-3.131,8.207,0,11.337c1.565,1.566,3.617,2.348,5.668,2.348
	c2.051,0,4.103-0.782,5.668-2.348l60.465-60.465c3.131-3.131,3.131-8.207,0-11.337C155.746,349.992,150.67,349.992,147.539,353.123z
	"/>
<path d="M413.589,87.074l-60.465,60.465c-3.131,3.131-3.131,8.207,0,11.337c1.565,1.566,3.617,2.348,5.668,2.348
	c2.051,0,4.103-0.782,5.668-2.348l60.465-60.465c3.131-3.131,3.131-8.207,0-11.337C421.795,83.942,416.719,83.942,413.589,87.074z"
	/>
<path d="M393.353,256c0,4.427,3.589,8.017,8.017,8.017h17.102c4.427,0,8.017-3.589,8.017-8.017c0-4.427-3.589-8.017-8.017-8.017
	H401.37C396.942,247.983,393.353,251.573,393.353,256z"/>
<path d="M118.647,256c0-4.427-3.589-8.017-8.017-8.017H93.528c-4.427,0-8.017,3.589-8.017,8.017c0,4.427,3.589,8.017,8.017,8.017
	h17.102C115.058,264.017,118.647,260.427,118.647,256z"/>
<path d="M503.983,247.983h-51.307c-4.427,0-8.017,3.589-8.017,8.017c0,4.427,3.589,8.017,8.017,8.017h51.307
	c4.427,0,8.017-3.589,8.017-8.017C512,251.573,508.411,247.983,503.983,247.983z"/>
<path d="M256,118.647c4.427,0,8.017-3.589,8.017-8.017V93.528c0-4.427-3.589-8.017-8.017-8.017c-4.427,0-8.017,3.589-8.017,8.017
	v17.102C247.983,115.058,251.573,118.647,256,118.647z"/>
<path d="M256,67.34c4.427,0,8.017-3.589,8.017-8.017V8.017C264.017,3.589,260.427,0,256,0c-4.427,0-8.017,3.589-8.017,8.017v51.307
	C247.983,63.751,251.573,67.34,256,67.34z"/>
<path d="M256,393.353c-4.427,0-8.017,3.589-8.017,8.017v17.102c0,4.427,3.589,8.017,8.017,8.017c4.427,0,8.017-3.589,8.017-8.017
	V401.37C264.017,396.942,260.427,393.353,256,393.353z"/>
<path d="M256,444.66c-4.427,0-8.017,3.589-8.017,8.017v51.307c0,4.427,3.589,8.017,8.017,8.017c4.427,0,8.017-3.589,8.017-8.017
	v-51.307C264.017,448.249,260.427,444.66,256,444.66z"/>
<path d="M147.539,158.877c1.565,1.566,3.617,2.348,5.668,2.348c2.051,0,4.103-0.782,5.668-2.348c3.131-3.131,3.131-8.207,0-11.337
	L98.411,87.074c-3.131-3.132-8.207-3.132-11.337,0c-3.131,3.131-3.131,8.206,0,11.337L147.539,158.877z"/>
<path d="M364.461,353.123c-3.131-3.131-8.207-3.131-11.337,0c-3.131,3.131-3.131,8.207,0,11.337l60.465,60.465
	c1.565,1.566,3.617,2.348,5.668,2.348s4.103-0.782,5.668-2.348c3.131-3.131,3.131-8.206,0-11.337L364.461,353.123z"/>
<path d="M105.898,326.194c1.023,0,2.062-0.197,3.065-0.612l15.8-6.545c4.091-1.694,6.033-6.383,4.339-10.474
	c-1.694-4.091-6.384-6.032-10.474-4.339l-15.8,6.545c-4.091,1.694-6.033,6.383-4.339,10.474
	C99.767,324.331,102.753,326.194,105.898,326.194z"/>
<path d="M71.227,323.858l-15.8,6.545c-4.091,1.694-6.033,6.384-4.339,10.474c1.278,3.087,4.264,4.951,7.41,4.951
	c1.023,0,2.062-0.197,3.065-0.612l15.8-6.545c4.091-1.694,6.033-6.383,4.339-10.474C80.008,324.107,75.317,322.165,71.227,323.858z"
	/>
<path d="M437.709,188.754c1.023,0,2.062-0.197,3.065-0.611l15.8-6.545c4.091-1.694,6.033-6.385,4.339-10.474
	c-1.694-4.09-6.384-6.032-10.474-4.339l-15.8,6.545c-4.091,1.694-6.033,6.383-4.339,10.474
	C431.578,186.891,434.562,188.754,437.709,188.754z"/>
<path d="M403.037,186.418l-15.8,6.545c-4.091,1.694-6.033,6.383-4.339,10.474c1.278,3.088,4.264,4.951,7.41,4.951
	c1.023,0,2.062-0.197,3.065-0.612l15.8-6.545c4.091-1.694,6.033-6.383,4.339-10.474S407.127,184.724,403.037,186.418z"/>
<path d="M186.418,108.963l6.545,15.8c1.279,3.087,4.264,4.951,7.41,4.951c1.023,0,2.062-0.198,3.065-0.612
	c4.091-1.694,6.033-6.384,4.339-10.474l-6.545-15.8c-1.694-4.091-6.383-6.034-10.474-4.339
	C186.666,100.184,184.724,104.873,186.418,108.963z"/>
<path d="M173.329,77.362c1.279,3.088,4.264,4.951,7.41,4.951c1.023,0,2.062-0.197,3.065-0.612c4.091-1.694,6.033-6.383,4.339-10.474
	l-6.545-15.8c-1.694-4.091-6.383-6.033-10.474-4.339c-4.091,1.694-6.033,6.385-4.339,10.474L173.329,77.362z"/>
<path d="M338.671,434.638c-1.694-4.091-6.384-6.034-10.474-4.339c-4.091,1.694-6.033,6.383-4.339,10.474l6.545,15.8
	c1.279,3.087,4.264,4.951,7.41,4.951c1.023,0,2.062-0.197,3.065-0.612c4.091-1.694,6.033-6.384,4.339-10.474L338.671,434.638z"/>
<path d="M325.582,403.037l-6.545-15.8c-1.695-4.091-6.384-6.033-10.474-4.339c-4.091,1.694-6.033,6.384-4.339,10.474l6.545,15.8
	c1.279,3.088,4.264,4.951,7.41,4.951c1.023,0,2.062-0.197,3.065-0.612C325.334,411.816,327.276,407.127,325.582,403.037z"/>
<path d="M124.764,192.963l-15.8-6.545c-4.09-1.694-8.78,0.248-10.474,4.339c-1.694,4.091,0.248,8.78,4.339,10.474l15.8,6.545
	c1.003,0.416,2.043,0.612,3.065,0.612c3.146,0,6.131-1.864,7.41-4.951C130.797,199.347,128.854,194.657,124.764,192.963z"/>
<path d="M77.362,173.329l-15.8-6.545c-4.092-1.694-8.78,0.248-10.474,4.339s0.248,8.78,4.339,10.474l15.8,6.545
	c1.004,0.416,2.043,0.611,3.065,0.611c3.146,0,6.131-1.864,7.41-4.951C83.396,179.712,81.453,175.023,77.362,173.329z"/>
<path d="M456.574,330.402l-15.8-6.545c-4.092-1.693-8.78,0.248-10.474,4.34c-1.694,4.091,0.248,8.78,4.339,10.474l15.8,6.545
	c1.004,0.416,2.043,0.612,3.065,0.612c3.146,0,6.131-1.864,7.41-4.951C462.606,336.787,460.664,332.097,456.574,330.402z"/>
<path d="M387.236,319.037l15.8,6.545c1.003,0.416,2.043,0.612,3.065,0.612c3.146,0,6.131-1.864,7.41-4.951
	c1.694-4.091-0.248-8.78-4.339-10.474l-15.8-6.545c-4.09-1.693-8.78,0.248-10.474,4.339
	C381.203,312.653,383.146,317.343,387.236,319.037z"/>
<path d="M308.563,129.102c1.003,0.416,2.043,0.612,3.065,0.612c3.146,0,6.131-1.864,7.41-4.951l6.545-15.8
	c1.694-4.091-0.248-8.78-4.339-10.474c-4.09-1.695-8.78,0.247-10.474,4.339l-6.545,15.8
	C302.53,122.719,304.472,127.408,308.563,129.102z"/>
<path d="M328.196,81.701c1.003,0.416,2.043,0.612,3.065,0.612c3.146,0,6.131-1.863,7.41-4.951l6.545-15.8
	c1.694-4.091-0.248-8.78-4.339-10.474c-4.09-1.694-8.78,0.248-10.474,4.339l-6.545,15.8
	C322.163,75.317,324.107,80.007,328.196,81.701z"/>
<path d="M183.804,430.299c-4.09-1.694-8.78,0.248-10.474,4.339l-6.545,15.8c-1.694,4.091,0.248,8.78,4.339,10.474
	c1.003,0.416,2.043,0.612,3.065,0.612c3.146,0,6.131-1.864,7.41-4.951l6.545-15.8C189.837,436.683,187.893,431.993,183.804,430.299z
	"/>
<path d="M203.437,382.898c-4.09-1.695-8.78,0.247-10.474,4.339l-6.545,15.8c-1.694,4.091,0.248,8.78,4.339,10.474
	c1.003,0.416,2.043,0.612,3.065,0.612c3.146,0,6.131-1.864,7.41-4.951l6.545-15.8C209.47,389.281,207.528,384.592,203.437,382.898z"
	/>
<g>
</g>
<g>
</g>
<g>
</g>
<g>
</g>
<g>
</g>
<g>
</g>
<g>
</g>
<g>
</g>
<g>
</g>
<g>
</g>
<g>
</g>
<g>
</g>
<g>
</g>
<g>
</g>
<g>
</g>
</svg>
